<svg width="392" height="68" viewBox="0 0 392 68" fill="none" xmlns="http://www.w3.org/2000/svg">
<path d="M148.016 30.0835V30.0658H126.803V9.11816H161.591V9.10929H164.418L168.051 0.168457H116.834V67.9913H126.803V38.9269H147.413V38.9357H152.411L156.009 30.0835H148.016Z" fill="white"/>
<path d="M76.8264 0C76.5162 0 76.215 0.115181 75.9846 0.318986L0.000732422 68H22.7737L76.3921 1.87855L61.1954 68H77.7125V0.886109C77.7125 0.398749 77.3137 0 76.8264 0Z" fill="white"/>
<path d="M182.202 0.168457L154.609 67.9913H165.313L172.145 50.5526H196.211L192.649 41.7713L175.654 41.789L187.466 11.5195L196.708 35.1963V35.2052L205.56 57.9162L205.542 57.9428L209.423 67.9913H220.216L192.818 0.168457H182.202Z" fill="white"/>
<path d="M237.815 30.4379V9.11816H257.655C265.594 9.11816 270.016 13.4512 270.016 19.8224C270.016 26.1935 265.585 30.4379 257.655 30.4379H237.824H237.815ZM279.976 19.8224C279.976 8.28521 271.859 0.168457 257.921 0.168457H227.837V67.9913H237.806V39.2902H251.372L271.115 67.9913H282.838L262.351 39.0155C273.791 37.5357 279.976 30.1544 279.976 19.8224Z" fill="white"/>
<path d="M295.669 57.5439C292.789 57.5439 290.45 59.8833 290.45 62.7631C290.45 65.643 292.789 67.9823 295.669 67.9823C298.549 67.9823 300.888 65.643 300.888 62.7631C300.888 59.8833 298.549 57.5439 295.669 57.5439Z" fill="white"/>
<path d="M391.998 0.168457H382.127V67.9913H391.998V0.168457Z" fill="white"/>
<path d="M336.536 0.168457L308.942 67.9913H319.646L326.469 50.5526H350.545L346.974 41.7713L329.978 41.789L341.79 11.5195L351.032 35.1963L351.041 35.2052L359.893 57.9162L359.867 57.9428L363.757 67.9913H374.55L347.142 0.168457H336.536Z" fill="white"/>
</svg>
